<svg width="1608" height="205" viewBox="0 0 1608 205" fill="none" xmlns="http://www.w3.org/2000/svg">
<rect x="2" y="2.36133" width="1604" height="200.637" fill="white" stroke="black" stroke-width="4"/>
<rect width="748.819" height="160" transform="translate(818 23)" fill="white"/>
<path d="M948.989 81.1963V55.9497H894.748L877.724 56.0932L877.577 55.9497H851.856V80.9811L852.004 81.1963L851.856 97.7643V123.656C861.879 115.767 871.828 107.949 881.777 99.9877C883.767 98.4098 885.094 98.4098 886.936 100.275C894.232 107.59 907.822 120.529 915.191 127.773C916.739 129.351 943.093 155.896 948.841 159.912L948.989 108.738V81.1963Z" fill="#CBF4F7"/>
<path d="M959.785 169.416L957.398 133.389L935.937 112.503L903.245 144.313V169.416H959.785V169.416Z" fill="#CCCCCC"/>
<path d="M948.989 150.976L898.705 102.039C888.137 91.7539 871.003 91.7539 860.435 102.039L840.772 121.175V150.969H948.989V150.976Z" fill="#00D600"/>
<path d="M877.724 158.227V150.552H851.856V125.306H832.4V169.416H877.724V158.227ZM968.445 125.306H948.841L948.989 125.449V150.552H923.269L923.121 150.409V169.416H968.445V125.306V125.306ZM840.36 81.1961H852.004L851.856 80.9809V55.9496H877.577L877.724 56.093V37.0146H832.4V81.1961H840.36ZM923.121 43.0394V55.9496H948.989V81.1961H968.445V37.0146H923.121V43.0394Z" fill="#0086FF"/>
<path d="M877.724 43.0394V56.093L894.748 55.9496H923.121V37.0146H877.724V43.0394ZM923.121 150.409L906.024 150.552H877.724V169.416H923.121V150.409ZM958.717 81.1961H948.989V108.738L948.841 124.947V125.306H968.445V81.1961H958.717V81.1961ZM840.36 125.306H851.856V97.7642L852.004 81.1961H832.4V125.306H840.36Z" fill="#93EAFF"/>
<path d="M1032.76 79.317C1035.38 79.3673 1037.98 78.8078 1040.34 77.6961C1042.69 76.5772 1044.74 74.9276 1046.31 72.8907L1053.6 80.149C1047.84 86.4176 1041.24 89.5448 1033.44 89.5448C1029.92 89.6739 1026.41 89.1144 1023.13 87.8951C1019.84 86.6758 1016.83 84.8254 1014.3 82.4513C1011.83 80.1347 1009.88 77.3375 1008.6 74.239C1007.32 71.1406 1006.72 67.8198 1006.85 64.4775C1006.75 61.1065 1007.38 57.7499 1008.69 54.6228C1010 51.5028 1011.97 48.6769 1014.47 46.3387C1016.95 43.9719 1019.89 42.1142 1023.12 40.8663C1026.35 39.6183 1029.8 39.0158 1033.28 39.0875C1037.21 39.023 1041.11 39.8191 1044.69 41.4185C1048.27 43.018 1051.43 45.3777 1053.95 48.3255L1047 56.0716C1045.47 54.0633 1043.48 52.4424 1041.18 51.3235C1038.88 50.2046 1036.35 49.6308 1033.78 49.6452C1029.78 49.5735 1025.91 50.9864 1022.94 53.6043C1021.4 54.9814 1020.2 56.6669 1019.41 58.546C1018.62 60.4252 1018.26 62.4549 1018.37 64.4847C1018.26 66.5073 1018.58 68.5371 1019.31 70.4377C1020.04 72.3384 1021.16 74.0741 1022.6 75.5372C1025.39 77.983 1029.02 79.3386 1032.77 79.3314L1032.76 79.317ZM1062.41 88.8777V39.9052H1073.59V79.1449H1095.11V88.8706H1062.41V88.8777ZM1144.23 82.1143C1141.75 84.4811 1138.81 86.3387 1135.58 87.5867C1132.35 88.8347 1128.9 89.4372 1125.43 89.3655C1121.96 89.4372 1118.5 88.8275 1115.27 87.5867C1112.04 86.3387 1109.1 84.4811 1106.62 82.1143C1104.14 79.7976 1102.18 77.0004 1100.86 73.9091C1099.55 70.8179 1098.92 67.4899 1098.99 64.1404C1098.9 60.791 1099.52 57.463 1100.84 54.3646C1102.15 51.2661 1104.12 48.4761 1106.62 46.1666C1109.1 43.7997 1112.04 41.9421 1115.27 40.6941C1118.5 39.4461 1121.96 38.8437 1125.43 38.9154C1128.9 38.8437 1132.35 39.4533 1135.58 40.6941C1138.81 41.9421 1141.75 43.7997 1144.23 46.1666C1146.72 48.4833 1148.68 51.2805 1149.99 54.3717C1151.3 57.463 1151.94 60.791 1151.86 64.1404C1151.96 67.4899 1151.33 70.8179 1150.01 73.9163C1148.7 77.0147 1146.73 79.8048 1144.23 82.1143ZM1140.34 64.1404C1140.36 59.9948 1138.8 55.9927 1135.93 52.9301C1134.61 51.4383 1132.97 50.2548 1131.12 49.4587C1129.28 48.6626 1127.28 48.2681 1125.26 48.3183C1123.24 48.2753 1121.23 48.6626 1119.39 49.4587C1117.55 50.2548 1115.9 51.4454 1114.59 52.9301C1111.69 55.9783 1110.11 59.9948 1110.18 64.1404C1110.15 68.286 1111.72 72.2882 1114.59 75.3508C1115.9 76.8426 1117.55 78.026 1119.39 78.8222C1121.23 79.6183 1123.24 80.0128 1125.26 79.9626C1127.28 80.0056 1129.28 79.6183 1131.12 78.8222C1132.97 78.026 1134.61 76.8354 1135.93 75.3508C1137.39 73.8661 1138.54 72.1017 1139.3 70.1795C1140.06 68.2502 1140.4 66.1989 1140.33 64.1404H1140.34ZM1174.73 76.276C1175.62 77.402 1176.79 78.3058 1178.11 78.9082C1179.44 79.5107 1180.89 79.7976 1182.36 79.7402C1183.8 79.8119 1185.23 79.5394 1186.54 78.9297C1187.84 78.3273 1188.96 77.4092 1189.81 76.276C1191.75 73.5864 1192.71 70.3301 1192.52 67.0452V40.0056H1203.7V67.3751C1203.7 74.4686 1201.67 79.9052 1197.6 83.6993C1195.55 85.6072 1193.13 87.1062 1190.49 88.096C1187.84 89.0857 1185.02 89.5519 1182.18 89.473C1179.32 89.5591 1176.47 89.0857 1173.79 88.096C1171.12 87.1062 1168.67 85.6143 1166.59 83.6993C1162.53 79.9052 1160.49 74.4686 1160.49 67.3751V40.0056H1171.67V67.0452C1171.67 70.3588 1172.73 73.5864 1174.72 76.276H1174.73ZM1253.85 46.3387C1258.6 50.6278 1261.14 56.5593 1261.14 64.1476C1261.14 71.7359 1258.77 77.8324 1254.2 82.2864C1249.62 86.7404 1242.34 88.8849 1232.85 88.8849H1215.4V39.9052H1233.13C1242.16 39.9052 1249.11 42.0497 1253.85 46.3387V46.3387ZM1245.72 75.5229C1248.43 73.0484 1249.79 69.2543 1249.79 64.4775C1249.79 59.7008 1248.43 55.9066 1245.72 53.4322C1243.01 50.9577 1238.77 49.473 1233.02 49.473H1226.75V79.317H1233.87C1238.17 79.5394 1242.41 78.1838 1245.73 75.5229H1245.72ZM1325.01 39.9052H1336.18V88.8777H1325.01L1300.9 58.1444V88.8132H1289.72V39.8406H1300.22L1324.95 71.3343L1325.01 39.9052V39.9052ZM1384.47 88.8777L1379.72 78.3273H1358.49L1353.75 88.8777H1341.72L1363.41 39.9052H1374.25L1395.94 88.8777H1384.46H1384.47ZM1369.39 54.5797L1363.13 68.7594H1375.66L1369.4 54.5797H1369.39ZM1420.05 49.4659V89.0355H1408.87V49.4659H1394.64V40.0056H1434.45V49.4013L1420.05 49.4659V49.4659ZM1442.41 39.9052H1453.59V88.8777H1442.41V39.9052V39.9052ZM1484.6 71.0689L1497.48 39.9052H1509.67L1489.51 88.8777H1480.03L1459.86 39.9052H1472.01L1484.6 71.0689H1484.6ZM1551.86 39.9052V49.6308H1526.79V59.6864H1549.32V69.0822H1526.79V79.3027H1552.71V89.0284H1515.61V40.0056H1551.86V39.9052V39.9052Z" fill="black"/>
<path d="M1047.32 156.728V168.698H1006.94V114.935H1020.7V156.728H1047.32ZM1096.45 160.479H1074.9L1071.52 168.698H1056.09L1077.96 114.935H1093.4L1115.27 168.698H1099.83L1096.46 160.479H1096.45ZM1092.35 150.38L1085.67 133.87L1079 150.38H1092.34H1092.35ZM1127.73 114.935H1141.48L1165.6 146.708V114.935H1179.27V168.698H1165.6L1141.48 136.925V168.698H1127.73V114.935ZM1196.24 114.935H1216.43C1235.4 114.935 1248.83 126.052 1248.83 141.781C1248.83 157.51 1235.4 168.706 1216.43 168.706H1196.24V114.935V114.935ZM1218.52 156.57C1228.01 156.57 1234.68 150.388 1234.68 141.781C1234.68 133.174 1228.01 127.07 1218.52 127.07H1209.99V156.577H1218.52V156.57ZM1258.8 160.637L1266.59 151.636C1271.98 155.939 1278.01 158.442 1284.77 158.442C1289.91 158.442 1292.56 156.405 1292.56 153.515C1292.56 150.309 1289.99 149.599 1281.95 147.719C1270.13 145.137 1261.37 142.01 1261.37 131.209C1261.37 120.407 1269.89 113.995 1282.44 113.995C1291.77 113.995 1299 116.656 1304.87 121.354L1297.88 130.9C1292.81 127.142 1287.26 125.191 1282.11 125.191C1277.69 125.191 1275.2 127.228 1275.2 129.889C1275.2 133.174 1277.85 134.271 1286.06 135.993C1298.44 138.575 1306.4 142.017 1306.4 152.116C1306.4 162.918 1297.96 169.645 1284.29 169.645C1274.48 169.645 1265.55 166.511 1258.8 160.644V160.637ZM1317.18 141.774C1317.18 126.669 1330.77 113.988 1346.93 113.988C1355.54 113.988 1363.33 117.589 1368.8 123.226L1358.75 131.912C1355.94 128.39 1351.59 126.116 1346.93 126.116C1338.48 126.116 1331.33 133.317 1331.33 141.766C1331.33 150.215 1338.48 157.495 1346.93 157.495C1351.68 157.495 1355.94 155.229 1358.83 151.707L1368.8 160.314C1363.33 166.03 1355.54 169.631 1346.93 169.631C1330.77 169.631 1317.18 156.871 1317.18 141.766V141.774ZM1417.69 160.479H1396.14L1392.77 168.698H1377.33L1399.2 114.935H1414.64L1436.52 168.698H1421.08L1417.7 160.479H1417.69ZM1413.6 150.38L1406.92 133.87L1400.24 150.38H1413.59H1413.6ZM1448.97 114.935H1474.62C1486.84 114.935 1495.61 122.523 1495.61 133.403C1495.61 144.284 1486.85 151.872 1474.62 151.872H1462.72V168.698H1448.97V114.935V114.935ZM1473.42 139.665C1478.16 139.665 1481.46 137.162 1481.46 133.403C1481.46 129.645 1478.16 127.142 1473.42 127.142H1462.72V139.665H1473.42ZM1522.95 126.905V135.275H1549.97V147.253H1522.95V156.721H1552.71V168.691H1509.2V114.935H1552.71V126.913H1522.95V126.905Z" fill="black"/>
<path d="M918.279 66.6363C910.667 66.6363 904.587 72.5534 904.719 79.7688C904.852 87.1132 910.865 92.9013 918.346 92.9013C925.826 92.9013 931.773 86.9196 931.773 79.8333C931.773 72.4243 925.826 66.5717 918.279 66.6363V66.6363Z" fill="#FFCE00"/>
<line x1="779.61" y1="201" x2="779.61" y2="1" stroke="black" stroke-width="4"/>
<path d="M233.901 140.668H264.38C282.129 140.668 293.34 132.037 293.34 118.75C293.34 108.869 288.902 101.828 275.59 98.7617C285.633 95.1275 288.786 89.6762 288.786 82.0672C288.786 69.6883 279.21 61.1707 261.46 61.1707H233.901V140.668ZM250.25 126.359V106.939H262.862C271.736 106.939 276.758 110.459 276.758 116.251C276.758 123.179 271.736 126.359 262.862 126.359H250.25ZM250.25 93.9918V75.3667H259.942C268.817 75.3667 272.204 79.1144 272.204 84.5657C272.204 90.9255 268.817 93.9918 259.942 93.9918H250.25ZM305.978 164.404C320.224 164.404 327.815 156.341 332.953 144.416L359.811 81.6129H341.127L329.333 115.343C328.282 118.182 327.347 121.702 326.764 124.769C326.18 121.702 325.245 118.182 324.194 115.343L312.4 81.6129H293.366L317.421 137.943L316.604 140.441C314.852 145.665 310.999 149.413 304.927 149.413C302.357 149.413 300.139 149.186 297.803 148.618L295.468 163.268C298.621 164.177 302.825 164.404 305.978 164.404Z" fill="#111827"/>
<path d="M390.756 140.763H399.384V127.159H392.854C389.823 127.159 387.957 125.459 387.957 121.717V94.8489H400.783V81.8114H387.957V68.3205L372.217 69.9077V81.8114H363.705V94.8489H372.217V122.511C372.217 135.322 378.746 140.763 390.756 140.763ZM433.484 142.237C445.493 142.237 455.637 137.022 460.534 129.653L448.291 120.697C445.493 125.232 440.246 128.633 433.484 128.633C425.555 128.633 420.192 123.758 418.443 116.843H463.799C464.149 114.915 464.265 113.101 464.265 111.401C464.265 94.3954 451.673 80.3376 433.484 80.3376C415.294 80.3376 402.119 94.3954 402.119 111.401C402.119 128.406 414.711 142.237 433.484 142.237ZM418.443 105.392C420.192 98.3633 425.788 93.4885 433.25 93.4885C440.946 93.4885 446.659 98.8168 448.408 105.392H418.443ZM506.038 142.237C522.711 142.237 536.003 128.52 536.003 111.514C536.003 94.5088 522.711 80.5644 506.038 80.5644C495.661 80.5644 490.181 84.6457 486.916 90.881V58.0039H471.175V140.763H486.45V131.127C489.714 137.816 495.194 142.237 506.038 142.237ZM486.45 111.514C486.45 102.331 493.096 94.3954 503.473 94.3954C513.5 94.3954 520.263 102.218 520.263 111.401C520.263 120.357 513.5 128.406 503.473 128.406C493.096 128.406 486.45 120.697 486.45 111.514ZM570.088 142.237C580.932 142.237 586.412 137.816 589.677 131.127V140.763H604.951V81.8114H589.327V91.1077C586.062 84.759 580.582 80.5644 570.088 80.5644C553.415 80.5644 540.123 94.5088 540.123 111.514C540.123 128.52 553.415 142.237 570.088 142.237ZM555.863 111.401C555.863 102.218 562.626 94.3954 572.653 94.3954C583.031 94.3954 589.677 102.331 589.677 111.514C589.677 120.697 583.031 128.406 572.653 128.406C562.626 128.406 555.863 120.357 555.863 111.401ZM635.057 142.237C648.466 142.237 658.61 134.075 658.61 123.191C658.61 114.348 654.529 108 636.923 103.578C629.694 101.764 628.761 99.9505 628.761 97.9099C628.761 94.2821 632.026 92.6949 636.34 92.6949C640.421 92.6949 644.152 94.5088 647.067 99.0436L658.493 90.5409C652.313 82.7184 645.784 80.3376 635.99 80.3376C621.765 80.3376 613.37 88.0467 613.37 98.3633C613.37 105.846 615.819 112.988 632.026 116.729C641.587 118.883 643.102 120.584 643.102 123.645C643.102 127.159 640.071 129.767 634.707 129.767C629.577 129.767 624.913 127.386 620.482 122.511L609.872 131.921C616.518 138.836 624.797 142.237 635.057 142.237ZM693.778 142.237C705.787 142.237 715.931 137.022 720.829 129.653L708.586 120.697C705.788 125.232 700.541 128.633 693.778 128.633C685.849 128.633 680.486 123.758 678.737 116.843H724.093C724.443 114.915 724.56 113.101 724.56 111.401C724.56 94.3954 711.967 80.3376 693.778 80.3376C675.589 80.3376 662.413 94.3954 662.413 111.401C662.413 128.406 675.006 142.237 693.778 142.237ZM678.737 105.392C680.486 98.3633 686.083 93.4885 693.545 93.4885C701.24 93.4885 706.953 98.8168 708.702 105.392H678.737Z" fill="#111827"/>
<path fill-rule="evenodd" clip-rule="evenodd" d="M67.6172 135.266C74.813 149.212 86.6056 160.385 101.095 166.986L115.891 135.989C115.283 136.038 114.662 136.063 114.029 136.063C106.892 136.063 101.274 133.838 97.1745 129.388C93.1508 124.938 91.139 118.522 91.139 110.141V75.3204H171.993V108.695C171.993 117.373 169.905 123.899 165.73 128.275C161.63 132.726 156.316 134.951 149.787 134.951C149.434 134.951 149.086 134.943 148.741 134.929L165.68 164.783C179.662 157.211 190.629 145.26 196.811 130.858C202.993 116.454 204.033 100.438 199.759 85.388C195.488 70.338 186.153 57.1316 173.261 47.8965C160.367 38.6616 144.668 33.9358 128.69 34.4809C112.713 35.0259 97.3888 40.8101 85.187 50.9011C72.9851 60.9922 64.6162 74.8027 61.4289 90.1071C58.2416 105.411 60.4215 121.318 67.6172 135.266ZM139.537 91.1178H157.075V108.584C157.075 111.921 156.239 114.406 154.569 116.038C152.975 117.744 150.887 118.596 148.306 118.596C145.421 118.596 143.22 117.707 141.701 115.926C140.259 114.221 139.537 111.773 139.537 108.584V91.1178ZM106.057 91.1178H124.505V109.696C124.505 113.034 123.67 115.519 122 117.151C120.33 118.856 118.09 119.709 115.281 119.709C112.32 119.709 110.043 118.856 108.449 117.151C106.854 115.519 106.057 113.034 106.057 109.696V91.1178Z" fill="#111827"/>
</svg>
